<svg id="vector" xmlns="http://www.w3.org/2000/svg" width="24" height="24" viewBox="0 0 24 24">
	<path fill="#6F6F6F"
		  d="M9.6667,5.7143C9.6667,6.6629 10.4483,7.4286 11.4167,7.4286H12.245L8.255,16.5714H6.75C5.7817,16.5714 5,17.3371 5,18.2857C5,19.2343 5.7817,20 6.75,20H12.5833C13.5517,20 14.3333,19.2343 14.3333,18.2857C14.3333,17.3371 13.5517,16.5714 12.5833,16.5714H11.755L15.745,7.4286H17.25C18.2183,7.4286 19,6.6629 19,5.7143C19,4.7657 18.2183,4 17.25,4H11.4167C10.4483,4 9.6667,4.7657 9.6667,5.7143Z"
		  id="path_0"/>
</svg>